# xmcd CD database file
#
# Track frame offsets:
#	150
#	13466
#	34295
#	53863
#	66359
#	88339
#	108178
#	120239
#	135575
#	158348
#
# Disc length: 2383 seconds
#
# Revision: 0
# Processed by: cddbd v1.5.2PL0 Copyright (c) Steve Scherf et al.
# Submitted via: CDex 1.70beta2
#
DISCID=81094d0a
DTITLE=Hominy - Hominy
DYEAR=1998
DGENRE=Country
TTITLE0=Bottom of the Lake
TTITLE1=Sunny Days and Raisinets
TTITLE2=Thousand Miles a Turn
TTITLE3=Merty the Medic
TTITLE4=Inside Your Guns
TTITLE5=Closing Day
TTITLE6=Al Capone
TTITLE7=Dinner Bucket Town
TTITLE8=My Love For You Is Not Contemporary
TTITLE9=Trinity Pass
EXTD=YEAR: 1998
EXTT0=
EXTT1=
EXTT2=
EXTT3=
EXTT4=
EXTT5=
EXTT6=
EXTT7=
EXTT8=
EXTT9=
PLAYORDER=
